<?xml version="1.0" encoding="UTF-8"?>
<svg xmlns="http://www.w3.org/2000/svg" xmlns:xlink="http://www.w3.org/1999/xlink" viewBox="0 0 48 48" width="48px" height="48px">

<path fill-rule="nonzero" fill="rgb(100%,100%,100%)"  d="M 0 24 C 0 10.746094 10.746094 0 24 0 C 37.253906 0 48 10.746094 48 24 C 48 37.253906 37.253906 48 24 48 C 10.746094 48 0 37.253906 0 24 Z M 24 47.039062 C 36.726562 47.039062 47.039062 36.726562 47.039062 24 C 47.039062 11.273438 36.726562 0.960938 24 0.960938 C 11.273438 0.960938 0.960938 11.273438 0.960938 24 C 0.960938 36.726562 11.273438 47.039062 24 47.039062 Z M 24 47.039062 "/>
<path fill-rule="nonzero" fill="rgb(100%,100%,100%)"  d="M 17.601562 9.601562 C 13.1875 9.601562 9.601562 13.1875 9.601562 17.601562 L 9.601562 30.398438 C 9.601562 34.8125 13.1875 38.398438 17.601562 38.398438 L 30.398438 38.398438 C 34.8125 38.398438 38.398438 34.8125 38.398438 30.398438 L 38.398438 17.601562 C 38.398438 13.1875 34.8125 9.601562 30.398438 9.601562 Z M 17.601562 12.800781 L 30.398438 12.800781 C 33.046875 12.800781 35.199219 14.953125 35.199219 17.601562 L 35.199219 30.398438 C 35.199219 33.046875 33.046875 35.199219 30.398438 35.199219 L 17.601562 35.199219 C 14.953125 35.199219 12.800781 33.046875 12.800781 30.398438 L 12.800781 17.601562 C 12.800781 14.953125 14.953125 12.800781 17.601562 12.800781 Z M 32 14.398438 C 31.117188 14.398438 30.398438 15.117188 30.398438 16 C 30.398438 16.882812 31.117188 17.601562 32 17.601562 C 32.882812 17.601562 33.601562 16.882812 33.601562 16 C 33.601562 15.117188 32.882812 14.398438 32 14.398438 Z M 24 16 C 19.589844 16 16 19.589844 16 24 C 16 28.410156 19.589844 32 24 32 C 28.410156 32 32 28.410156 32 24 C 32 19.589844 28.410156 16 24 16 Z M 24 19.199219 C 26.644531 19.199219 28.800781 21.355469 28.800781 24 C 28.800781 26.644531 26.644531 28.800781 24 28.800781 C 21.355469 28.800781 19.199219 26.644531 19.199219 24 C 19.199219 21.355469 21.355469 19.199219 24 19.199219 Z M 24 19.199219 "/>

</svg>
