<?xml version="1.0" encoding="UTF-8"?>
<svg xmlns="http://www.w3.org/2000/svg" xmlns:xlink="http://www.w3.org/1999/xlink" viewBox="0 0 48 48" width="48px" height="48px">

<path fill-rule="nonzero" fill="rgb(100%,100%,100%)" d="M 0 24 C 0 10.746094 10.746094 0 24 0 C 37.253906 0 48 10.746094 48 24 C 48 37.253906 37.253906 48 24 48 C 10.746094 48 0 37.253906 0 24 Z M 24 47.039062 C 36.726562 47.039062 47.039062 36.726562 47.039062 24 C 47.039062 11.273438 36.726562 0.960938 24 0.960938 C 11.273438 0.960938 0.960938 11.273438 0.960938 24 C 0.960938 36.726562 11.273438 47.039062 24 47.039062 Z M 24 47.039062 "/>
<path fill-rule="nonzero" fill="rgb(100%,100%,100%)" d="M 42.242188 12.6875 C 40.898438 13.28125 39.457031 13.683594 37.941406 13.867188 C 39.488281 12.9375 40.671875 11.472656 41.230469 9.726562 C 39.785156 10.582031 38.183594 11.207031 36.476562 11.542969 C 35.113281 10.085938 33.167969 9.175781 31.015625 9.175781 C 26.882812 9.175781 23.53125 12.53125 23.53125 16.660156 C 23.53125 17.25 23.597656 17.820312 23.726562 18.367188 C 17.503906 18.054688 11.992188 15.074219 8.296875 10.546875 C 7.65625 11.652344 7.285156 12.9375 7.285156 14.308594 C 7.285156 16.90625 8.605469 19.195312 10.613281 20.539062 C 9.386719 20.5 8.234375 20.164062 7.222656 19.601562 C 7.222656 19.636719 7.222656 19.664062 7.222656 19.695312 C 7.222656 23.324219 9.804688 26.347656 13.226562 27.035156 C 12.601562 27.207031 11.9375 27.296875 11.253906 27.296875 C 10.773438 27.296875 10.304688 27.25 9.847656 27.164062 C 10.800781 30.136719 13.566406 32.300781 16.839844 32.363281 C 14.277344 34.371094 11.050781 35.566406 7.542969 35.566406 C 6.941406 35.566406 6.34375 35.53125 5.757812 35.460938 C 9.070312 37.585938 13.003906 38.824219 17.230469 38.824219 C 31 38.824219 38.523438 27.417969 38.523438 17.527344 C 38.523438 17.203125 38.519531 16.882812 38.503906 16.5625 C 39.96875 15.503906 41.238281 14.1875 42.242188 12.6875 Z M 42.242188 12.6875 "/>

</svg>
